<mxfile host="app.diagrams.net" modified="2020-11-16T15:27:37.934Z" agent="5.0 (Windows NT 10.0; Win64; x64) AppleWebKit/537.36 (KHTML, like Gecko) Chrome/86.0.4240.198 Safari/537.36" etag="vJrtTLHQinU496mSulf5" version="13.9.7" type="github">
  <diagram id="-2nEl9TAG3GCxIsAMPrP" name="Page-1">
    <mxGraphModel dx="1038" dy="523" grid="1" gridSize="10" guides="1" tooltips="1" connect="1" arrows="1" fold="1" page="1" pageScale="1" pageWidth="850" pageHeight="1100" math="0" shadow="0">
      <root>
        <mxCell id="0" />
        <mxCell id="1" parent="0" />
        <mxCell id="yT_FNX9e7H5vtbw98gg1-10" style="edgeStyle=none;rounded=0;orthogonalLoop=1;jettySize=auto;html=1;entryX=0.069;entryY=0.632;entryDx=0;entryDy=0;entryPerimeter=0;startArrow=classic;startFill=1;endArrow=classic;endFill=1;" edge="1" parent="1" source="yT_FNX9e7H5vtbw98gg1-15" target="yT_FNX9e7H5vtbw98gg1-21">
          <mxGeometry relative="1" as="geometry" />
        </mxCell>
        <mxCell id="yT_FNX9e7H5vtbw98gg1-38" value="Checks Warranty" style="edgeLabel;html=1;align=center;verticalAlign=middle;resizable=0;points=[];" vertex="1" connectable="0" parent="yT_FNX9e7H5vtbw98gg1-10">
          <mxGeometry x="-0.3183" y="1" relative="1" as="geometry">
            <mxPoint as="offset" />
          </mxGeometry>
        </mxCell>
        <mxCell id="yT_FNX9e7H5vtbw98gg1-15" value="HVAC&#xa;Management" style="shape=module;align=left;spacingLeft=20;align=center;verticalAlign=top;fillColor=#dae8fc;strokeColor=#6c8ebf;" vertex="1" parent="1">
          <mxGeometry x="60" y="270" width="120" height="90" as="geometry" />
        </mxCell>
        <mxCell id="yT_FNX9e7H5vtbw98gg1-16" value="" style="endArrow=none;html=1;endFill=0;startArrow=classic;startFill=1;exitX=0.5;exitY=0;exitDx=0;exitDy=0;entryX=0.5;entryY=1;entryDx=0;entryDy=0;entryPerimeter=0;" edge="1" parent="1">
          <mxGeometry width="50" height="50" relative="1" as="geometry">
            <mxPoint x="125" y="270" as="sourcePoint" />
            <mxPoint x="122.11500000000001" y="70" as="targetPoint" />
          </mxGeometry>
        </mxCell>
        <mxCell id="yT_FNX9e7H5vtbw98gg1-17" value="Updates&amp;nbsp;" style="edgeLabel;html=1;align=center;verticalAlign=middle;resizable=0;points=[];" vertex="1" connectable="0" parent="yT_FNX9e7H5vtbw98gg1-16">
          <mxGeometry x="-0.244" y="-1" relative="1" as="geometry">
            <mxPoint as="offset" />
          </mxGeometry>
        </mxCell>
        <mxCell id="yT_FNX9e7H5vtbw98gg1-44" style="edgeStyle=none;rounded=0;orthogonalLoop=1;jettySize=auto;html=1;entryX=0.87;entryY=0.65;entryDx=0;entryDy=0;entryPerimeter=0;startArrow=none;startFill=0;endArrow=classic;endFill=1;" edge="1" parent="1" source="yT_FNX9e7H5vtbw98gg1-18" target="yT_FNX9e7H5vtbw98gg1-43">
          <mxGeometry relative="1" as="geometry" />
        </mxCell>
        <mxCell id="yT_FNX9e7H5vtbw98gg1-45" value="Alot Technician" style="edgeLabel;html=1;align=center;verticalAlign=middle;resizable=0;points=[];" vertex="1" connectable="0" parent="yT_FNX9e7H5vtbw98gg1-44">
          <mxGeometry x="-0.2605" y="-2" relative="1" as="geometry">
            <mxPoint as="offset" />
          </mxGeometry>
        </mxCell>
        <mxCell id="yT_FNX9e7H5vtbw98gg1-18" value="TechinicanÂ &#xa;Management" style="shape=module;align=left;spacingLeft=20;align=center;verticalAlign=top;" vertex="1" parent="1">
          <mxGeometry x="530" y="380" width="110" height="50" as="geometry" />
        </mxCell>
        <mxCell id="yT_FNX9e7H5vtbw98gg1-39" value="" style="edgeStyle=orthogonalEdgeStyle;rounded=0;orthogonalLoop=1;jettySize=auto;html=1;startArrow=none;startFill=0;endArrow=classic;endFill=1;" edge="1" parent="1" source="yT_FNX9e7H5vtbw98gg1-21" target="yT_FNX9e7H5vtbw98gg1-26">
          <mxGeometry relative="1" as="geometry" />
        </mxCell>
        <mxCell id="yT_FNX9e7H5vtbw98gg1-51" style="edgeStyle=none;rounded=0;orthogonalLoop=1;jettySize=auto;html=1;entryX=0.047;entryY=0.488;entryDx=0;entryDy=0;entryPerimeter=0;startArrow=none;startFill=0;endArrow=classic;endFill=1;" edge="1" parent="1" source="yT_FNX9e7H5vtbw98gg1-21" target="yT_FNX9e7H5vtbw98gg1-50">
          <mxGeometry relative="1" as="geometry" />
        </mxCell>
        <mxCell id="yT_FNX9e7H5vtbw98gg1-52" value="Payment Gateway" style="edgeLabel;html=1;align=center;verticalAlign=middle;resizable=0;points=[];" vertex="1" connectable="0" parent="yT_FNX9e7H5vtbw98gg1-51">
          <mxGeometry x="-0.7981" y="2" relative="1" as="geometry">
            <mxPoint x="41.08" y="8.78" as="offset" />
          </mxGeometry>
        </mxCell>
        <mxCell id="yT_FNX9e7H5vtbw98gg1-21" value="Customer&#xa;Portal" style="shape=module;align=left;spacingLeft=20;align=center;verticalAlign=top;" vertex="1" parent="1">
          <mxGeometry x="340" y="150" width="110" height="50" as="geometry" />
        </mxCell>
        <mxCell id="yT_FNX9e7H5vtbw98gg1-22" style="edgeStyle=none;rounded=0;orthogonalLoop=1;jettySize=auto;html=1;exitX=0.5;exitY=1;exitDx=0;exitDy=0;startArrow=none;startFill=0;endArrow=open;endFill=0;" edge="1" parent="1">
          <mxGeometry relative="1" as="geometry">
            <mxPoint x="200" y="500" as="sourcePoint" />
            <mxPoint x="200" y="500" as="targetPoint" />
          </mxGeometry>
        </mxCell>
        <mxCell id="yT_FNX9e7H5vtbw98gg1-41" style="rounded=0;orthogonalLoop=1;jettySize=auto;html=1;entryX=0.567;entryY=-0.032;entryDx=0;entryDy=0;startArrow=none;startFill=0;endArrow=classic;endFill=1;entryPerimeter=0;" edge="1" parent="1" source="yT_FNX9e7H5vtbw98gg1-26" target="yT_FNX9e7H5vtbw98gg1-18">
          <mxGeometry relative="1" as="geometry" />
        </mxCell>
        <mxCell id="yT_FNX9e7H5vtbw98gg1-42" value="Pub-Sub" style="edgeLabel;html=1;align=center;verticalAlign=middle;resizable=0;points=[];" vertex="1" connectable="0" parent="yT_FNX9e7H5vtbw98gg1-41">
          <mxGeometry x="-0.4668" relative="1" as="geometry">
            <mxPoint as="offset" />
          </mxGeometry>
        </mxCell>
        <mxCell id="yT_FNX9e7H5vtbw98gg1-26" value="Complaints&#xa;Management" style="shape=module;align=left;spacingLeft=20;align=center;verticalAlign=top;" vertex="1" parent="1">
          <mxGeometry x="340" y="261" width="110" height="50" as="geometry" />
        </mxCell>
        <mxCell id="yT_FNX9e7H5vtbw98gg1-32" style="edgeStyle=none;rounded=0;orthogonalLoop=1;jettySize=auto;html=1;startArrow=classic;startFill=1;entryX=0.6;entryY=-0.008;entryDx=0;entryDy=0;entryPerimeter=0;" edge="1" parent="1" source="yT_FNX9e7H5vtbw98gg1-33" target="yT_FNX9e7H5vtbw98gg1-21">
          <mxGeometry relative="1" as="geometry">
            <mxPoint x="407.85135135135124" y="135" as="targetPoint" />
          </mxGeometry>
        </mxCell>
        <mxCell id="yT_FNX9e7H5vtbw98gg1-33" value="Customer" style="aspect=fixed;pointerEvents=1;shadow=0;dashed=0;html=1;strokeColor=none;labelPosition=center;verticalLabelPosition=bottom;verticalAlign=top;align=center;fillColor=#00188D;shape=mxgraph.azure.user" vertex="1" parent="1">
          <mxGeometry x="378" y="34.5" width="47" height="50" as="geometry" />
        </mxCell>
        <mxCell id="yT_FNX9e7H5vtbw98gg1-35" style="rounded=0;orthogonalLoop=1;jettySize=auto;html=1;entryX=0.14;entryY=0.65;entryDx=0;entryDy=0;entryPerimeter=0;exitX=0.817;exitY=0.013;exitDx=0;exitDy=0;exitPerimeter=0;" edge="1" parent="1" source="yT_FNX9e7H5vtbw98gg1-15" target="yT_FNX9e7H5vtbw98gg1-33">
          <mxGeometry relative="1" as="geometry">
            <mxPoint x="144.23000000000002" y="58.5" as="sourcePoint" />
          </mxGeometry>
        </mxCell>
        <mxCell id="yT_FNX9e7H5vtbw98gg1-36" value="Send error alerts" style="text;html=1;align=center;verticalAlign=middle;resizable=0;points=[];autosize=1;" vertex="1" parent="1">
          <mxGeometry x="210" y="140" width="110" height="20" as="geometry" />
        </mxCell>
        <mxCell id="yT_FNX9e7H5vtbw98gg1-40" value="Register Complaint" style="text;html=1;align=center;verticalAlign=middle;resizable=0;points=[];autosize=1;" vertex="1" parent="1">
          <mxGeometry x="330" y="210" width="120" height="20" as="geometry" />
        </mxCell>
        <mxCell id="yT_FNX9e7H5vtbw98gg1-46" style="edgeStyle=none;rounded=0;orthogonalLoop=1;jettySize=auto;html=1;startArrow=none;startFill=0;endArrow=classic;endFill=1;" edge="1" parent="1" source="yT_FNX9e7H5vtbw98gg1-43">
          <mxGeometry relative="1" as="geometry">
            <mxPoint x="180" y="320" as="targetPoint" />
          </mxGeometry>
        </mxCell>
        <mxCell id="yT_FNX9e7H5vtbw98gg1-47" value="Rectify / Resolve" style="edgeLabel;html=1;align=center;verticalAlign=middle;resizable=0;points=[];" vertex="1" connectable="0" parent="yT_FNX9e7H5vtbw98gg1-46">
          <mxGeometry x="0.3065" y="1" relative="1" as="geometry">
            <mxPoint as="offset" />
          </mxGeometry>
        </mxCell>
        <mxCell id="yT_FNX9e7H5vtbw98gg1-48" value="" style="edgeStyle=none;rounded=0;orthogonalLoop=1;jettySize=auto;html=1;startArrow=none;startFill=0;endArrow=classic;endFill=1;" edge="1" parent="1" source="yT_FNX9e7H5vtbw98gg1-43" target="yT_FNX9e7H5vtbw98gg1-26">
          <mxGeometry relative="1" as="geometry" />
        </mxCell>
        <mxCell id="yT_FNX9e7H5vtbw98gg1-43" value="Technician" style="aspect=fixed;pointerEvents=1;shadow=0;dashed=0;html=1;strokeColor=none;labelPosition=center;verticalLabelPosition=bottom;verticalAlign=top;align=center;fillColor=#00188D;shape=mxgraph.azure.user" vertex="1" parent="1">
          <mxGeometry x="378" y="370" width="47" height="50" as="geometry" />
        </mxCell>
        <mxCell id="yT_FNX9e7H5vtbw98gg1-49" value="Report" style="text;html=1;align=center;verticalAlign=middle;resizable=0;points=[];autosize=1;" vertex="1" parent="1">
          <mxGeometry x="365" y="340" width="50" height="20" as="geometry" />
        </mxCell>
        <mxCell id="yT_FNX9e7H5vtbw98gg1-50" value="Payment&#xa;Â Management" style="shape=module;align=left;spacingLeft=20;align=center;verticalAlign=top;" vertex="1" parent="1">
          <mxGeometry x="630" y="210" width="110" height="50" as="geometry" />
        </mxCell>
        <mxCell id="yT_FNX9e7H5vtbw98gg1-53" value="Cloud" style="ellipse;shape=cloud;whiteSpace=wrap;html=1;" vertex="1" parent="1">
          <mxGeometry x="57" y="20" width="120" height="80" as="geometry" />
        </mxCell>
        <mxCell id="yT_FNX9e7H5vtbw98gg1-54" value="" style="aspect=fixed;pointerEvents=1;shadow=0;dashed=0;html=1;strokeColor=none;labelPosition=center;verticalLabelPosition=bottom;verticalAlign=top;align=center;fillColor=#00188D;shape=mxgraph.mscae.enterprise.device" vertex="1" parent="1">
          <mxGeometry x="92" y="330" width="50" height="26" as="geometry" />
        </mxCell>
      </root>
    </mxGraphModel>
  </diagram>
</mxfile>
